<?xml version="1.0" encoding="UTF-8"?>
<svg id="Layer_1" data-name="Layer 1" xmlns="http://www.w3.org/2000/svg" viewBox="0 0 300 300">
  <defs>
    <style>
      .cls-1 {
        fill: #231f20;
        stroke-width: 0px;
      }
    </style>
  </defs>
  <g id="Trash">
    <path class="cls-1" d="M67.9,100.11h164.21v169.01c0,7.81-6.34,14.15-14.15,14.15H82.05c-7.81,0-14.15-6.34-14.15-14.15V100.11h0Z"/>
    <path class="cls-1" d="M98.45,39.98h103.11c6.24,0,11.31,5.07,11.31,11.31v19.06h-125.73v-19.06c0-6.24,5.07-11.31,11.31-11.31Z"/>
    <path class="cls-1" d="M64.61,60.35h170.79c6.24,0,11.31,5.07,11.31,11.31v9.06H53.3v-9.06c0-6.24,5.07-11.31,11.31-11.31Z"/>
    <path class="cls-1" d="M150,16.73c-12.84,0-23.25,10.41-23.25,23.25s10.41,23.26,23.25,23.26,23.25-10.41,23.25-23.26-10.41-23.25-23.25-23.25ZM150,51.75c-6.5,0-11.76-5.27-11.76-11.76s5.27-11.76,11.76-11.76,11.76,5.27,11.76,11.76-5.27,11.76-11.76,11.76Z"/>
  </g>
</svg>